<svg xmlns="http://www.w3.org/2000/svg" viewBox="0 0 960 70">
  <defs>
    <linearGradient id="fs" x1="0" y1="1" x2="0" y2="0">
      <stop offset="0%" stop-color="#0D1117"/>
      <stop offset="100%" stop-color="#050810"/>
    </linearGradient>
    <linearGradient id="fg" x1="0" y1="0" x2="1" y2="0">
      <stop offset="0%" stop-color="#A855F7" stop-opacity="0"/>
      <stop offset="20%" stop-color="#A855F7" stop-opacity=".5"/>
      <stop offset="50%" stop-color="#6366F1" stop-opacity=".6"/>
      <stop offset="80%" stop-color="#2DD4BF" stop-opacity=".5"/>
      <stop offset="100%" stop-color="#2DD4BF" stop-opacity="0"/>
    </linearGradient>
    <pattern id="fw1" patternUnits="userSpaceOnUse" width="10" height="8">
      <rect x="1" y="1" width="3" height="2.5" rx=".3" fill="#A855F7" opacity=".5"/>
      <rect x="6" y="1" width="3" height="2.5" rx=".3" fill="#A855F7" opacity=".1"/>
      <rect x="1" y="5" width="3" height="2.5" rx=".3" fill="#A855F7" opacity=".25"/>
      <rect x="6" y="5" width="3" height="2.5" rx=".3" fill="#A855F7" opacity=".4"/>
    </pattern>
    <pattern id="fw2" patternUnits="userSpaceOnUse" width="10" height="8">
      <rect x="1" y="1" width="3" height="2.5" rx=".3" fill="#2DD4BF" opacity=".35"/>
      <rect x="6" y="1" width="3" height="2.5" rx=".3" fill="#2DD4BF" opacity=".55"/>
      <rect x="1" y="5" width="3" height="2.5" rx=".3" fill="#2DD4BF" opacity=".15"/>
      <rect x="6" y="5" width="3" height="2.5" rx=".3" fill="#2DD4BF" opacity=".45"/>
    </pattern>
  </defs>

  <rect width="960" height="70" fill="url(#fs)"/>

  <!-- Neon line at top -->
  <rect x="60" y="2" width="840" height="1" fill="url(#fg)" opacity=".4" rx=".5"/>

  <!-- Mini skyline silhouettes -->
  <rect x="80" y="32" width="16" height="30" fill="#060a14" stroke="#110e28" stroke-width=".3" rx=".5"/>
  <rect x="82" y="34" width="12" height="26" fill="url(#fw1)"/>

  <rect x="102" y="18" width="14" height="44" fill="#060a14" stroke="#0a1828" stroke-width=".3" rx=".5"/>
  <rect x="104" y="20" width="10" height="40" fill="url(#fw2)"/>

  <rect x="122" y="40" width="20" height="22" fill="#060a14" stroke="#110e28" stroke-width=".3" rx=".5"/>
  <rect x="124" y="42" width="16" height="18" fill="url(#fw1)"/>

  <rect x="148" y="12" width="14" height="50" fill="#060a14" stroke="#110e28" stroke-width=".3" rx=".5"/>
  <rect x="150" y="14" width="10" height="46" fill="url(#fw2)"/>

  <rect x="168" y="28" width="18" height="34" fill="#060a14" stroke="#0a1828" stroke-width=".3" rx=".5"/>
  <rect x="170" y="30" width="14" height="30" fill="url(#fw1)"/>

  <rect x="224" y="36" width="14" height="26" fill="#060a14" stroke="#110e28" stroke-width=".3" rx=".5"/>
  <rect x="226" y="38" width="10" height="22" fill="url(#fw2)"/>

  <rect x="244" y="20" width="16" height="42" fill="#060a14" stroke="#110e28" stroke-width=".3" rx=".5"/>
  <rect x="246" y="22" width="12" height="38" fill="url(#fw1)"/>

  <rect x="266" y="44" width="12" height="18" fill="#060a14" stroke="#0a1828" stroke-width=".3" rx=".5"/>
  <rect x="268" y="46" width="8" height="14" fill="url(#fw2)"/>

  <rect x="380" y="30" width="16" height="32" fill="#060a14" stroke="#110e28" stroke-width=".3" rx=".5"/>
  <rect x="382" y="32" width="12" height="28" fill="url(#fw1)"/>

  <rect x="402" y="14" width="14" height="48" fill="#060a14" stroke="#0a1828" stroke-width=".3" rx=".5"/>
  <rect x="404" y="16" width="10" height="44" fill="url(#fw2)"/>

  <rect x="422" y="38" width="18" height="24" fill="#060a14" stroke="#110e28" stroke-width=".3" rx=".5"/>
  <rect x="424" y="40" width="14" height="20" fill="url(#fw1)"/>

  <rect x="540" y="34" width="14" height="28" fill="#060a14" stroke="#0a1828" stroke-width=".3" rx=".5"/>
  <rect x="542" y="36" width="10" height="24" fill="url(#fw2)"/>

  <rect x="560" y="22" width="16" height="40" fill="#060a14" stroke="#110e28" stroke-width=".3" rx=".5"/>
  <rect x="562" y="24" width="12" height="36" fill="url(#fw1)"/>

  <rect x="582" y="42" width="12" height="20" fill="#060a14" stroke="#0a1828" stroke-width=".3" rx=".5"/>
  <rect x="584" y="44" width="8" height="16" fill="url(#fw2)"/>

  <rect x="700" y="26" width="18" height="36" fill="#060a14" stroke="#110e28" stroke-width=".3" rx=".5"/>
  <rect x="702" y="28" width="14" height="32" fill="url(#fw1)"/>

  <rect x="724" y="16" width="14" height="46" fill="#060a14" stroke="#0a1828" stroke-width=".3" rx=".5"/>
  <rect x="726" y="18" width="10" height="42" fill="url(#fw2)"/>

  <rect x="744" y="38" width="16" height="24" fill="#060a14" stroke="#110e28" stroke-width=".3" rx=".5"/>
  <rect x="746" y="40" width="12" height="20" fill="url(#fw1)"/>

  <rect x="840" y="30" width="14" height="32" fill="#060a14" stroke="#110e28" stroke-width=".3" rx=".5"/>
  <rect x="842" y="32" width="10" height="28" fill="url(#fw2)"/>

  <rect x="860" y="18" width="16" height="44" fill="#060a14" stroke="#0a1828" stroke-width=".3" rx=".5"/>
  <rect x="862" y="20" width="12" height="40" fill="url(#fw1)"/>

  <!-- Ground line -->
  <line x1="60" y1="62" x2="900" y2="62" stroke="#A855F7" stroke-width=".3" opacity=".08"/>
</svg>
