<svg xmlns="http://www.w3.org/2000/svg" viewBox="0 0 960 320">
  <defs>
    <pattern id="scanlines" patternUnits="userSpaceOnUse" width="960" height="4">
      <rect width="960" height="1" y="3" fill="#fff" opacity=".02"/>
    </pattern>
    <pattern id="wa" patternUnits="userSpaceOnUse" width="22" height="16">
      <rect x="1" y="1" width="8" height="5" fill="#b8ff57" opacity=".85"/>
      <rect x="12" y="1" width="8" height="5" fill="#b8ff57" opacity=".15"/>
      <rect x="1" y="9" width="8" height="5" fill="#b8ff57" opacity=".35"/>
      <rect x="12" y="9" width="8" height="5" fill="#b8ff57" opacity=".7"/>
    </pattern>
    <pattern id="wb" patternUnits="userSpaceOnUse" width="22" height="16">
      <rect x="1" y="1" width="8" height="5" fill="#b8ff57" opacity=".2"/>
      <rect x="12" y="1" width="8" height="5" fill="#b8ff57" opacity=".9"/>
      <rect x="1" y="9" width="8" height="5" fill="#b8ff57" opacity=".55"/>
      <rect x="12" y="9" width="8" height="5" fill="#b8ff57" opacity=".25"/>
    </pattern>
    <pattern id="wc" patternUnits="userSpaceOnUse" width="22" height="16">
      <rect x="1" y="1" width="8" height="5" fill="#b8ff57" opacity=".5"/>
      <rect x="12" y="1" width="8" height="5" fill="#b8ff57" opacity=".8"/>
      <rect x="1" y="9" width="8" height="5" fill="#b8ff57" opacity=".1"/>
      <rect x="12" y="9" width="8" height="5" fill="#b8ff57" opacity=".6"/>
    </pattern>
    <filter id="g1"><feGaussianBlur stdDeviation="2" result="b"/><feMerge><feMergeNode in="b"/><feMergeNode in="SourceGraphic"/></feMerge></filter>
    <filter id="g2"><feGaussianBlur stdDeviation="3.5" result="b"/><feMerge><feMergeNode in="b"/><feMergeNode in="SourceGraphic"/></feMerge></filter>
    <linearGradient id="sky" x1="0" y1="0" x2="0" y2="1">
      <stop offset="0%" stop-color="#060a12"/>
      <stop offset="100%" stop-color="#0c1420"/>
    </linearGradient>
  </defs>

  <!-- Background -->
  <rect width="960" height="320" fill="url(#sky)" rx="8"/>
  <rect width="960" height="320" fill="url(#scanlines)" rx="8"/>
  <rect x="1" y="1" width="958" height="318" fill="none" stroke="#131b28" rx="8"/>

  <!-- Terminal corner brackets -->
  <path d="M12,8 L8,8 L8,22" stroke="#b8ff57" stroke-width="1.5" fill="none" opacity=".25"/>
  <path d="M948,8 L952,8 L952,22" stroke="#b8ff57" stroke-width="1.5" fill="none" opacity=".25"/>
  <path d="M12,312 L8,312 L8,298" stroke="#b8ff57" stroke-width="1.5" fill="none" opacity=".25"/>
  <path d="M948,312 L952,312 L952,298" stroke="#b8ff57" stroke-width="1.5" fill="none" opacity=".25"/>

  <!-- ══════ CITY SKYLINE (Left) ══════ -->

  <!-- Stars -->
  <circle cx="50" cy="38" r="1" fill="#b8ff57" opacity=".3"/>
  <circle cx="115" cy="22" r=".8" fill="#b8ff57" opacity=".2"/>
  <circle cx="198" cy="48" r="1.1" fill="#b8ff57" opacity=".15"/>
  <circle cx="275" cy="32" r=".7" fill="#b8ff57" opacity=".25"/>
  <circle cx="350" cy="52" r=".9" fill="#b8ff57" opacity=".2"/>
  <circle cx="88" cy="58" r=".6" fill="#b8ff57" opacity=".35"/>
  <circle cx="310" cy="18" r=".8" fill="#b8ff57" opacity=".15"/>
  <circle cx="170" cy="30" r="1" fill="#b8ff57" opacity=".2"/>

  <!-- Ground -->
  <line x1="18" y1="290" x2="400" y2="290" stroke="#1a2e1e" stroke-width=".6" opacity=".4"/>

  <!-- Building 1 -->
  <rect x="22" y="205" width="30" height="85" fill="#0c1220" stroke="#14202c" stroke-width=".3"/>
  <rect x="24" y="207" width="26" height="81" fill="url(#wa)"/>

  <!-- Building 2 -->
  <rect x="57" y="125" width="26" height="165" fill="#0c1220" stroke="#14202c" stroke-width=".3"/>
  <rect x="59" y="127" width="22" height="161" fill="url(#wb)"/>

  <!-- Building 3 -->
  <rect x="88" y="248" width="38" height="42" fill="#0c1220" stroke="#14202c" stroke-width=".3"/>
  <rect x="90" y="250" width="34" height="38" fill="url(#wc)"/>

  <!-- Building 4 (antenna) -->
  <rect x="131" y="78" width="26" height="212" fill="#0c1220" stroke="#14202c" stroke-width=".3"/>
  <rect x="133" y="80" width="22" height="208" fill="url(#wa)"/>
  <line x1="144" y1="78" x2="144" y2="60" stroke="#b8ff57" stroke-width="1" opacity=".35"/>
  <circle cx="144" cy="58" r="2" fill="#b8ff57" opacity=".5">
    <animate attributeName="opacity" values=".5;.1;.5" dur="2.5s" repeatCount="indefinite"/>
  </circle>

  <!-- Building 5 -->
  <rect x="162" y="168" width="34" height="122" fill="#0c1220" stroke="#14202c" stroke-width=".3"/>
  <rect x="164" y="170" width="30" height="118" fill="url(#wb)"/>

  <!-- Building 6 -->
  <rect x="201" y="232" width="26" height="58" fill="#0c1220" stroke="#14202c" stroke-width=".3"/>
  <rect x="203" y="234" width="22" height="54" fill="url(#wc)"/>

  <!-- Building 7 (tallest, antenna) -->
  <rect x="232" y="52" width="30" height="238" fill="#0c1220" stroke="#14202c" stroke-width=".3"/>
  <rect x="234" y="54" width="26" height="234" fill="url(#wa)"/>
  <line x1="247" y1="52" x2="247" y2="30" stroke="#b8ff57" stroke-width="1" opacity=".35"/>
  <circle cx="247" cy="28" r="2.5" fill="#b8ff57" opacity=".6">
    <animate attributeName="opacity" values=".6;.1;.6" dur="1.8s" repeatCount="indefinite"/>
  </circle>

  <!-- Building 8 -->
  <rect x="267" y="140" width="26" height="150" fill="#0c1220" stroke="#14202c" stroke-width=".3"/>
  <rect x="269" y="142" width="22" height="146" fill="url(#wb)"/>

  <!-- Building 9 -->
  <rect x="298" y="255" width="34" height="35" fill="#0c1220" stroke="#14202c" stroke-width=".3"/>
  <rect x="300" y="257" width="30" height="31" fill="url(#wc)"/>

  <!-- Building 10 -->
  <rect x="337" y="95" width="26" height="195" fill="#0c1220" stroke="#14202c" stroke-width=".3"/>
  <rect x="339" y="97" width="22" height="191" fill="url(#wa)"/>
  <line x1="350" y1="95" x2="350" y2="80" stroke="#b8ff57" stroke-width="1" opacity=".3"/>
  <circle cx="350" cy="78" r="1.5" fill="#b8ff57" opacity=".4">
    <animate attributeName="opacity" values=".4;.08;.4" dur="3s" repeatCount="indefinite"/>
  </circle>

  <!-- Building 11 -->
  <rect x="368" y="188" width="28" height="102" fill="#0c1220" stroke="#14202c" stroke-width=".3"/>
  <rect x="370" y="190" width="24" height="98" fill="url(#wb)"/>

  <!-- ══════ DIVIDER ══════ -->
  <line x1="418" y1="22" x2="418" y2="298" stroke="#151f2c" stroke-width="1" stroke-dasharray="3,6" opacity=".5"/>

  <!-- ══════ PROFILE CARD (Right) ══════ -->

  <!-- Name -->
  <text x="450" y="66" font-family="'Courier New',Courier,monospace" font-size="34" fill="#b8ff57" font-weight="bold" filter="url(#g2)" letter-spacing="3">SHOAIB ALI</text>

  <!-- Handle -->
  <text x="452" y="88" font-family="'Courier New',Courier,monospace" font-size="13" fill="#3a5c3a">@ShoaibAli7869</text>

  <!-- Status tag -->
  <rect x="450" y="100" width="280" height="22" fill="none" stroke="#1a2e1e" stroke-width=".5" rx="3" opacity=".5"/>
  <text x="462" y="115" font-family="'Courier New',Courier,monospace" font-size="10" fill="#b8ff57" opacity=".5" letter-spacing="1.5">&lt; ELITE DEVELOPER // IN THE CITY &gt;</text>

  <!-- Stat 1: Contributions -->
  <rect x="450" y="140" width="185" height="58" fill="#090e16" stroke="#152218" stroke-width=".5" rx="4"/>
  <text x="464" y="157" font-family="'Courier New',Courier,monospace" font-size="9" fill="#3a5c3a" letter-spacing="1.5">CONTRIBUTIONS</text>
  <text x="464" y="186" font-family="'Courier New',Courier,monospace" font-size="26" fill="#b8ff57" font-weight="bold" filter="url(#g1)">500+</text>

  <!-- Stat 2: Repos -->
  <rect x="647" y="140" width="185" height="58" fill="#090e16" stroke="#152218" stroke-width=".5" rx="4"/>
  <text x="661" y="157" font-family="'Courier New',Courier,monospace" font-size="9" fill="#3a5c3a" letter-spacing="1.5">REPOSITORIES</text>
  <text x="661" y="186" font-family="'Courier New',Courier,monospace" font-size="26" fill="#b8ff57" font-weight="bold" filter="url(#g1)">40+</text>

  <!-- Stat 3: Stars -->
  <rect x="450" y="208" width="185" height="58" fill="#090e16" stroke="#152218" stroke-width=".5" rx="4"/>
  <text x="464" y="225" font-family="'Courier New',Courier,monospace" font-size="9" fill="#3a5c3a" letter-spacing="1.5">STARS EARNED</text>
  <text x="464" y="254" font-family="'Courier New',Courier,monospace" font-size="26" fill="#b8ff57" font-weight="bold" filter="url(#g1)">100+</text>

  <!-- Stat 4: Achievements -->
  <rect x="647" y="208" width="185" height="58" fill="#090e16" stroke="#152218" stroke-width=".5" rx="4"/>
  <text x="661" y="225" font-family="'Courier New',Courier,monospace" font-size="9" fill="#3a5c3a" letter-spacing="1.5">ACHIEVEMENTS</text>
  <text x="661" y="254" font-family="'Courier New',Courier,monospace" font-size="26" fill="#b8ff57" font-weight="bold" filter="url(#g1)">15+</text>

  <!-- Footer tagline -->
  <line x1="450" y1="280" x2="832" y2="280" stroke="#141e2c" stroke-width=".5" opacity=".3"/>
  <text x="452" y="298" font-family="'Courier New',Courier,monospace" font-size="10" fill="#3a5c3a" opacity=".65">Full Stack Developer · AI Architect · Digital Craftsman</text>
</svg>
