<svg xmlns="http://www.w3.org/2000/svg" viewBox="0 0 960 300">
  <defs>
    <pattern id="scan" patternUnits="userSpaceOnUse" width="960" height="4">
      <rect width="960" height="1" y="3" fill="#fff" opacity=".012"/>
    </pattern>

    <pattern id="wp1" patternUnits="userSpaceOnUse" width="18" height="12">
      <rect x="1" y="1" width="6" height="4" rx=".5" fill="#A855F7" opacity=".78"/>
      <rect x="10" y="1" width="6" height="4" rx=".5" fill="#A855F7" opacity=".12"/>
      <rect x="1" y="7" width="6" height="4" rx=".5" fill="#A855F7" opacity=".32"/>
      <rect x="10" y="7" width="6" height="4" rx=".5" fill="#A855F7" opacity=".62"/>
    </pattern>
    <pattern id="wp2" patternUnits="userSpaceOnUse" width="18" height="12">
      <rect x="1" y="1" width="6" height="4" rx=".5" fill="#A855F7" opacity=".18"/>
      <rect x="10" y="1" width="6" height="4" rx=".5" fill="#A855F7" opacity=".82"/>
      <rect x="1" y="7" width="6" height="4" rx=".5" fill="#A855F7" opacity=".52"/>
      <rect x="10" y="7" width="6" height="4" rx=".5" fill="#A855F7" opacity=".14"/>
    </pattern>
    <pattern id="wt1" patternUnits="userSpaceOnUse" width="18" height="12">
      <rect x="1" y="1" width="6" height="4" rx=".5" fill="#2DD4BF" opacity=".65"/>
      <rect x="10" y="1" width="6" height="4" rx=".5" fill="#2DD4BF" opacity=".15"/>
      <rect x="1" y="7" width="6" height="4" rx=".5" fill="#2DD4BF" opacity=".4"/>
      <rect x="10" y="7" width="6" height="4" rx=".5" fill="#2DD4BF" opacity=".72"/>
    </pattern>
    <pattern id="wt2" patternUnits="userSpaceOnUse" width="18" height="12">
      <rect x="1" y="1" width="6" height="4" rx=".5" fill="#2DD4BF" opacity=".14"/>
      <rect x="10" y="1" width="6" height="4" rx=".5" fill="#2DD4BF" opacity=".68"/>
      <rect x="1" y="7" width="6" height="4" rx=".5" fill="#2DD4BF" opacity=".38"/>
      <rect x="10" y="7" width="6" height="4" rx=".5" fill="#2DD4BF" opacity=".8"/>
    </pattern>
    <pattern id="wm" patternUnits="userSpaceOnUse" width="18" height="12">
      <rect x="1" y="1" width="6" height="4" rx=".5" fill="#A855F7" opacity=".45"/>
      <rect x="10" y="1" width="6" height="4" rx=".5" fill="#2DD4BF" opacity=".55"/>
      <rect x="1" y="7" width="6" height="4" rx=".5" fill="#2DD4BF" opacity=".22"/>
      <rect x="10" y="7" width="6" height="4" rx=".5" fill="#A855F7" opacity=".38"/>
    </pattern>
    <pattern id="wi" patternUnits="userSpaceOnUse" width="18" height="12">
      <rect x="1" y="1" width="6" height="4" rx=".5" fill="#6366F1" opacity=".55"/>
      <rect x="10" y="1" width="6" height="4" rx=".5" fill="#6366F1" opacity=".2"/>
      <rect x="1" y="7" width="6" height="4" rx=".5" fill="#6366F1" opacity=".35"/>
      <rect x="10" y="7" width="6" height="4" rx=".5" fill="#6366F1" opacity=".65"/>
    </pattern>

    <filter id="gs"><feGaussianBlur stdDeviation="2" result="b"/><feMerge><feMergeNode in="b"/><feMergeNode in="SourceGraphic"/></feMerge></filter>
    <filter id="gm"><feGaussianBlur stdDeviation="4" result="b"/><feMerge><feMergeNode in="b"/><feMergeNode in="SourceGraphic"/></feMerge></filter>
    <filter id="gl"><feGaussianBlur stdDeviation="7" result="b"/><feMerge><feMergeNode in="b"/><feMergeNode in="SourceGraphic"/></feMerge></filter>

    <linearGradient id="sky" x1="0" y1="0" x2="0" y2="1">
      <stop offset="0%" stop-color="#030612"/>
      <stop offset="40%" stop-color="#070b18"/>
      <stop offset="100%" stop-color="#0D1117"/>
    </linearGradient>
    <linearGradient id="gnd" x1="0" y1="0" x2="1" y2="0">
      <stop offset="0%" stop-color="#A855F7" stop-opacity=".03"/>
      <stop offset="50%" stop-color="#6366F1" stop-opacity=".06"/>
      <stop offset="100%" stop-color="#2DD4BF" stop-opacity=".03"/>
    </linearGradient>
    <linearGradient id="refl" x1="0" y1="0" x2="0" y2="1">
      <stop offset="0%" stop-color="#A855F7" stop-opacity=".04"/>
      <stop offset="100%" stop-color="#A855F7" stop-opacity="0"/>
    </linearGradient>
    <linearGradient id="divl" x1="0" y1="0" x2="0" y2="1">
      <stop offset="0%" stop-color="#A855F7" stop-opacity=".08"/>
      <stop offset="50%" stop-color="#6366F1" stop-opacity=".15"/>
      <stop offset="100%" stop-color="#2DD4BF" stop-opacity=".08"/>
    </linearGradient>
  </defs>

  <!-- ══ BACKGROUND ══ -->
  <rect width="960" height="300" fill="url(#sky)" rx="8"/>
  <rect width="960" height="300" fill="url(#scan)" rx="8"/>
  <rect x=".5" y=".5" width="959" height="299" fill="none" stroke="#A855F7" stroke-width=".3" rx="8" opacity=".08"/>

  <!-- ══ CORNER BRACKETS ══ -->
  <path d="M16,6 L6,6 L6,24" stroke="#A855F7" stroke-width="1.8" fill="none" opacity=".2"/>
  <path d="M944,6 L954,6 L954,24" stroke="#2DD4BF" stroke-width="1.8" fill="none" opacity=".2"/>
  <path d="M16,294 L6,294 L6,276" stroke="#2DD4BF" stroke-width="1.8" fill="none" opacity=".2"/>
  <path d="M944,294 L954,294 L954,276" stroke="#A855F7" stroke-width="1.8" fill="none" opacity=".2"/>

  <!-- ══ STARS ══ -->
  <circle cx="38" cy="24" r="1" fill="#A855F7" opacity=".22"><animate attributeName="opacity" values=".22;.08;.22" dur="4s" repeatCount="indefinite"/></circle>
  <circle cx="98" cy="14" r=".7" fill="#2DD4BF" opacity=".18"/>
  <circle cx="172" cy="36" r="1.1" fill="#6366F1" opacity=".12"/>
  <circle cx="245" cy="18" r=".8" fill="#A855F7" opacity=".16"><animate attributeName="opacity" values=".16;.04;.16" dur="5.5s" repeatCount="indefinite"/></circle>
  <circle cx="320" cy="40" r=".9" fill="#2DD4BF" opacity=".14"/>
  <circle cx="72" cy="46" r=".6" fill="#A855F7" opacity=".2"/>
  <circle cx="290" cy="10" r=".7" fill="#6366F1" opacity=".1"/>
  <circle cx="148" cy="20" r=".9" fill="#2DD4BF" opacity=".15"><animate attributeName="opacity" values=".15;.05;.15" dur="6s" repeatCount="indefinite"/></circle>
  <circle cx="370" cy="28" r=".5" fill="#A855F7" opacity=".18"/>
  <circle cx="210" cy="8" r=".6" fill="#2DD4BF" opacity=".12"/>
  <circle cx="55" cy="56" r=".4" fill="#6366F1" opacity=".15"/>
  <circle cx="395" cy="48" r=".7" fill="#A855F7" opacity=".1"/>

  <!-- ══ GROUND ══ -->
  <rect x="14" y="270" width="410" height="22" fill="url(#gnd)"/>
  <rect x="14" y="272" width="410" height="16" fill="url(#refl)"/>
  <line x1="16" y1="270" x2="420" y2="270" stroke="#A855F7" stroke-width=".35" opacity=".12"/>

  <!-- ══ CITY SKYLINE ══ -->

  <!-- B1 — medium -->
  <rect x="22" y="202" width="30" height="68" fill="#060a16" stroke="#110e28" stroke-width=".5" rx="1"/>
  <rect x="24" y="204" width="26" height="64" fill="url(#wp1)" rx="1"/>

  <!-- B2 — tall -->
  <rect x="58" y="122" width="28" height="148" fill="#060a16" stroke="#0a1828" stroke-width=".5" rx="1"/>
  <rect x="60" y="124" width="24" height="144" fill="url(#wt1)" rx="1"/>

  <!-- B3 — short -->
  <rect x="90" y="238" width="36" height="32" fill="#060a16" stroke="#110e28" stroke-width=".5" rx="1"/>
  <rect x="92" y="240" width="32" height="28" fill="url(#wm)" rx="1"/>

  <!-- B4 — very tall + antenna -->
  <rect x="132" y="74" width="28" height="196" fill="#060a16" stroke="#110e28" stroke-width=".5" rx="1"/>
  <rect x="134" y="76" width="24" height="192" fill="url(#wp2)" rx="1"/>
  <rect x="143" y="68" width="4" height="6" fill="#0e0820" rx=".5"/>
  <line x1="145" y1="68" x2="145" y2="48" stroke="#A855F7" stroke-width="1" opacity=".25"/>
  <circle cx="145" cy="46" r="2.8" fill="#A855F7" opacity=".55" filter="url(#gs)">
    <animate attributeName="opacity" values=".55;.08;.55" dur="2s" repeatCount="indefinite"/>
  </circle>

  <!-- B5 — medium-tall -->
  <rect x="166" y="158" width="34" height="112" fill="#060a16" stroke="#0a1828" stroke-width=".5" rx="1"/>
  <rect x="168" y="160" width="30" height="108" fill="url(#wi)" rx="1"/>

  <!-- B6 — short -->
  <rect x="206" y="220" width="26" height="50" fill="#060a16" stroke="#110e28" stroke-width=".5" rx="1"/>
  <rect x="208" y="222" width="22" height="46" fill="url(#wm)" rx="1"/>

  <!-- B7 — TALLEST + antenna (centerpiece) -->
  <rect x="238" y="46" width="32" height="224" fill="#060a16" stroke="#110e28" stroke-width=".5" rx="1"/>
  <rect x="240" y="48" width="28" height="220" fill="url(#wp1)" rx="1"/>
  <rect x="250" y="38" width="6" height="8" fill="#0e0820" rx=".5"/>
  <line x1="253" y1="38" x2="253" y2="16" stroke="#A855F7" stroke-width="1.2" opacity=".3"/>
  <circle cx="253" cy="14" r="3.5" fill="#A855F7" opacity=".65" filter="url(#gm)">
    <animate attributeName="opacity" values=".65;.06;.65" dur="1.5s" repeatCount="indefinite"/>
  </circle>

  <!-- B8 — tall -->
  <rect x="276" y="134" width="28" height="136" fill="#060a16" stroke="#0a1828" stroke-width=".5" rx="1"/>
  <rect x="278" y="136" width="24" height="132" fill="url(#wt2)" rx="1"/>

  <!-- B9 — very short -->
  <rect x="310" y="250" width="30" height="20" fill="#060a16" stroke="#110e28" stroke-width=".5" rx="1"/>
  <rect x="312" y="252" width="26" height="16" fill="url(#wm)" rx="1"/>

  <!-- B10 — very tall + antenna -->
  <rect x="346" y="90" width="28" height="180" fill="#060a16" stroke="#110e28" stroke-width=".5" rx="1"/>
  <rect x="348" y="92" width="24" height="176" fill="url(#wp2)" rx="1"/>
  <rect x="357" y="84" width="4" height="6" fill="#0e0820" rx=".5"/>
  <line x1="359" y1="84" x2="359" y2="66" stroke="#2DD4BF" stroke-width="1" opacity=".25"/>
  <circle cx="359" cy="64" r="2.5" fill="#2DD4BF" opacity=".5" filter="url(#gs)">
    <animate attributeName="opacity" values=".5;.06;.5" dur="2.6s" repeatCount="indefinite"/>
  </circle>

  <!-- B11 — medium -->
  <rect x="380" y="182" width="30" height="88" fill="#060a16" stroke="#0a1828" stroke-width=".5" rx="1"/>
  <rect x="382" y="184" width="26" height="84" fill="url(#wt1)" rx="1"/>

  <!-- B12 — small accent -->
  <rect x="416" y="244" width="20" height="26" fill="#060a16" stroke="#110e28" stroke-width=".5" rx="1"/>
  <rect x="418" y="246" width="16" height="22" fill="url(#wi)" rx="1"/>

  <!-- ══ VERTICAL DIVIDER ══ -->
  <rect x="446" y="14" width="1" height="272" fill="url(#divl)" rx=".5"/>

  <!-- ══ PROFILE CARD ══ -->

  <!-- Name -->
  <text x="468" y="56" font-family="'Courier New',Courier,monospace" font-size="36" fill="#A855F7" font-weight="bold" filter="url(#gm)" letter-spacing="3">SHOAIB ALI</text>

  <!-- Handle -->
  <text x="470" y="78" font-family="'Courier New',Courier,monospace" font-size="12.5" fill="#6366F1" opacity=".55" letter-spacing=".5">@ShoaibAli7869</text>

  <!-- Status tag -->
  <rect x="468" y="90" width="420" height="22" fill="#060a16" stroke="#A855F7" stroke-width=".35" rx="3" opacity=".2"/>
  <text x="480" y="105" font-family="'Courier New',Courier,monospace" font-size="9" fill="#A855F7" opacity=".4" letter-spacing="1">&lt; FULL STACK DEV // AI ARCHITECT // DIGITAL CRAFTSMAN &gt;</text>

  <!-- ── Stats Grid ── -->

  <!-- S1: Contributions -->
  <rect x="468" y="126" width="200" height="56" fill="#050910" stroke="#1a1040" stroke-width=".5" rx="5"/>
  <text x="484" y="144" font-family="'Courier New',Courier,monospace" font-size="8.5" fill="#5a4e7a" letter-spacing="1.5">CONTRIBUTIONS</text>
  <text x="484" y="172" font-family="'Courier New',Courier,monospace" font-size="26" fill="#2DD4BF" font-weight="bold" filter="url(#gs)">500+</text>

  <!-- S2: Repos -->
  <rect x="680" y="126" width="200" height="56" fill="#050910" stroke="#1a1040" stroke-width=".5" rx="5"/>
  <text x="696" y="144" font-family="'Courier New',Courier,monospace" font-size="8.5" fill="#5a4e7a" letter-spacing="1.5">REPOSITORIES</text>
  <text x="696" y="172" font-family="'Courier New',Courier,monospace" font-size="26" fill="#2DD4BF" font-weight="bold" filter="url(#gs)">40+</text>

  <!-- S3: Stars -->
  <rect x="468" y="194" width="200" height="56" fill="#050910" stroke="#1a1040" stroke-width=".5" rx="5"/>
  <text x="484" y="212" font-family="'Courier New',Courier,monospace" font-size="8.5" fill="#5a4e7a" letter-spacing="1.5">STARS EARNED</text>
  <text x="484" y="240" font-family="'Courier New',Courier,monospace" font-size="26" fill="#2DD4BF" font-weight="bold" filter="url(#gs)">100+</text>

  <!-- S4: Achievements -->
  <rect x="680" y="194" width="200" height="56" fill="#050910" stroke="#1a1040" stroke-width=".5" rx="5"/>
  <text x="696" y="212" font-family="'Courier New',Courier,monospace" font-size="8.5" fill="#5a4e7a" letter-spacing="1.5">ACHIEVEMENTS</text>
  <text x="696" y="240" font-family="'Courier New',Courier,monospace" font-size="26" fill="#2DD4BF" font-weight="bold" filter="url(#gs)">15+</text>

  <!-- Footer line -->
  <line x1="468" y1="264" x2="880" y2="264" stroke="#161B22" stroke-width=".5" opacity=".3"/>

  <!-- Tagline -->
  <text x="470" y="282" font-family="'Courier New',Courier,monospace" font-size="10.5" fill="#8B949E" opacity=".5" letter-spacing=".3">Full Stack Developer · AI Architect · Digital Craftsman</text>

</svg>
